<?xml version="1.0" standalone="no"?>
<!DOCTYPE svg PUBLIC "-//W3C//DTD SVG 20010904//EN"
 "http://www.w3.org/TR/2001/REC-SVG-20010904/DTD/svg10.dtd">
<svg version="1.0" xmlns="http://www.w3.org/2000/svg"
 width="400.000000pt" height="400.000000pt" viewBox="0 0 400.000000 400.000000"
 preserveAspectRatio="xMidYMid meet">
<metadata>
Created by potrace 1.16, written by Peter Selinger 2001-2019
</metadata>
<g transform="translate(0.000000,400.000000) scale(0.100000,-0.100000)"
fill="#000000" stroke="none">
<path d="M3905 3491 c-87 -38 -100 -50 -130 -116 -67 -152 -77 -154 -740 -165
-559 -9 -593 -12 -770 -84 -202 -82 -386 -248 -479 -434 -42 -84 -87 -230 -89
-288 -2 -113 65 -123 243 -37 68 33 110 60 118 75 8 13 14 67 15 128 2 81 7
115 23 150 58 126 175 170 450 170 79 0 144 -3 144 -7 0 -5 -18 -100 -41 -213
-33 -169 -46 -214 -71 -255 -471 -767 -682 -1105 -685 -1101 -3 2 -20 77 -39
166 -63 303 -205 807 -261 927 -26 57 -66 67 -233 60 -327 -14 -536 -93 -715
-272 -97 -96 -144 -172 -183 -295 -67 -207 -37 -306 81 -270 57 17 187 83 214
109 23 22 33 53 52 156 14 76 50 150 102 208 47 54 158 113 231 123 45 6 48 5
48 -16 0 -36 -209 -1087 -230 -1160 -42 -143 -145 -266 -247 -296 -114 -33
-208 -1 -313 107 -69 71 -71 72 -113 66 -37 -5 -51 -16 -127 -98 -92 -99 -103
-125 -76 -178 37 -70 222 -147 378 -158 252 -16 477 86 632 287 135 175 224
407 297 778 12 61 25 112 29 112 9 0 70 -248 99 -400 23 -123 38 -251 47 -408
5 -97 10 -117 28 -139 19 -22 31 -26 77 -26 71 0 119 16 151 51 14 15 155 236
313 492 157 256 291 470 297 475 7 7 9 2 6 -15 -3 -14 -19 -97 -36 -185 -17
-88 -65 -334 -107 -547 -41 -212 -75 -400 -75 -418 0 -43 39 -80 85 -80 54 0
584 117 612 135 49 32 59 126 18 165 -23 22 -29 22 -128 16 -92 -6 -106 -5
-122 10 -25 26 -16 107 44 404 27 135 65 326 85 425 19 99 44 212 55 252 11
39 63 273 115 520 53 246 100 457 105 469 8 19 20 21 133 27 194 10 348 52
507 138 87 47 186 123 236 182 l35 41 0 133 c0 153 4 148 -95 104z"/>
</g>
</svg>
